<?xml version="1.0" encoding="UTF-8" standalone="no"?>
<svg
   xmlns:dc="http://purl.org/dc/elements/1.1/"
   xmlns:cc="http://creativecommons.org/ns#"
   xmlns:rdf="http://www.w3.org/1999/02/22-rdf-syntax-ns#"
   xmlns:svg="http://www.w3.org/2000/svg"
   xmlns="http://www.w3.org/2000/svg"
   version="1.1"
   id="svg4792"
   viewBox="0 0 330 310.00001"
   height="310"
   width="330">
  <title
     id="title6620">Book Pictograph 1</title>
  <defs
     id="defs4794" />
  <metadata
     id="metadata4797">
    <rdf:RDF>
      <cc:Work
         rdf:about="">
        <dc:format>image/svg+xml</dc:format>
        <dc:type
           rdf:resource="http://purl.org/dc/dcmitype/StillImage" />
        <dc:title>Book Pictograph 1</dc:title>
        <dc:subject>
          <rdf:Bag>
            <rdf:li>livre</rdf:li>
            <rdf:li>book</rdf:li>
            <rdf:li>pictographe</rdf:li>
            <rdf:li>pictogramme</rdf:li>
            <rdf:li>pictograph</rdf:li>
            <rdf:li>icon</rdf:li>
          </rdf:Bag>
        </dc:subject>
        <dc:description>book icon/pictograph</dc:description>
        <dc:contributor>
          <cc:Agent>
            <dc:title>liuzhongjun (https://openclipart.org/user-detail/liuzhongjun)</dc:title>
          </cc:Agent>
        </dc:contributor>
        <dc:publisher>
          <cc:Agent>
            <dc:title>Openclipart.org</dc:title>
          </cc:Agent>
        </dc:publisher>
        <dc:identifier>https://openclipart.org</dc:identifier>
        <cc:license
           rdf:resource="http://creativecommons.org/publicdomain/zero/1.0/" />
      </cc:Work>
      <cc:License
         rdf:about="http://creativecommons.org/publicdomain/zero/1.0/">
        <cc:permits
           rdf:resource="http://creativecommons.org/ns#Reproduction" />
        <cc:permits
           rdf:resource="http://creativecommons.org/ns#Distribution" />
        <cc:permits
           rdf:resource="http://creativecommons.org/ns#DerivativeWorks" />
      </cc:License>
    </rdf:RDF>
  </metadata>
  <g
     transform="translate(-207.04724,-371.1811)"
     id="layer1">
    <g
       id="g5947">
      <rect
         style="opacity:1;fill:#ffffff;fill-opacity:1;stroke:none;stroke-width:0.25;stroke-linecap:round;stroke-linejoin:miter;stroke-miterlimit:4;stroke-dasharray:none;stroke-dashoffset:0;stroke-opacity:1"
         id="rect5945"
         width="250.76656"
         height="244.33664"
         x="245.62671"
         y="396.12167" />
      <path
         id="path4311"
         style="fill:#333f4f"
         d="m 510.47795,414.18111 0,-21.00002 c 0,-3.86865 -2.58463,-6.99999 -5.76922,-6.99999 l -109.61535,0 c -9.41542,0 -17.79621,5.50667 -23.06158,14 0,0 0,0 0,0 0,0 0,0 0,0 -5.26537,-8.49333 -13.64616,-14 -23.06148,-14 l -109.61539,0 c -3.18462,0 -5.76923,3.13134 -5.76923,6.99999 l 0,21.00002 -11.53846,0 0,237.99999 124.22693,0 c 6.31152,8.58667 15.54223,14 25.77305,14 10.23081,0 19.45773,-5.41333 25.76534,-14 l 124.23468,0 0,-237.99999 -11.53855,0 z m -265.38456,-14.00001 103.8461,0 c 9.54236,0 17.30777,9.42199 17.30777,20.99999 l 0,133.77467 c 0,3.86867 2.58453,7.00001 5.76923,7.00001 3.18459,0 5.76922,-3.13134 5.76922,-7.00001 l 0,-133.77467 c 0,-11.578 7.76531,-20.99999 17.30767,-20.99999 l 103.84613,0 0,223.99999 -103.84613,0 c -9.41152,0 -17.79621,5.50668 -23.06158,14.00001 0,0 0,0 0,0 0,0 0,0 0,0 -5.26537,-8.49333 -13.64996,-14.00001 -23.06148,-14.00001 l -103.84617,0 0,-223.99999 z" />
    </g>
  </g>
</svg>
