<?xml version="1.0" standalone="no"?>
<!DOCTYPE svg PUBLIC "-//W3C//DTD SVG 20010904//EN"
 "http://www.w3.org/TR/2001/REC-SVG-20010904/DTD/svg10.dtd">
<svg version="1.0" xmlns="http://www.w3.org/2000/svg"
 width="1226.000000pt" height="146.000000pt" viewBox="0 0 1226.000000 146.000000"
 preserveAspectRatio="xMidYMid meet">

<g transform="translate(0.000000,146.000000) scale(0.100000,-0.100000)"
fill="#000000" stroke="none">
<path d="M5650 1453 c-8 -3 -28 -15 -44 -26 -25 -18 -43 -20 -160 -18 -236 3
-230 8 -342 -337 -47 -146 -89 -260 -94 -256 -4 5 -45 124 -90 264 -73 226
-86 258 -116 287 -41 38 -94 47 -246 41 -111 -4 -146 -16 -182 -65 -44 -59
-42 -68 163 -672 105 -310 200 -578 211 -596 35 -57 67 -65 259 -65 184 0 217
7 258 52 14 15 55 120 107 274 47 137 97 285 113 329 l28 80 5 -317 c5 -300 6
-318 26 -344 45 -61 66 -69 195 -73 129 -3 188 9 224 49 16 18 17 18 48 0 70
-41 190 -60 382 -60 176 1 182 1 247 29 37 16 85 43 106 60 l39 30 11 -23 c6
-13 27 -37 48 -52 36 -28 43 -29 160 -32 105 -4 128 -1 168 16 54 24 86 70 86
125 0 20 2 37 5 37 3 0 31 -25 62 -56 37 -37 81 -69 132 -93 l76 -36 181 0
180 0 76 37 c46 23 94 57 124 88 l48 50 12 -46 c14 -55 55 -101 103 -114 20
-5 84 -10 142 -10 91 0 112 3 149 23 78 41 80 52 80 369 0 269 1 278 20 278
18 0 19 -10 22 -284 3 -269 4 -286 24 -312 46 -62 65 -69 202 -72 118 -3 130
-2 171 20 81 43 81 44 81 433 0 368 -7 429 -55 511 -31 53 -96 111 -154 137
-70 31 -230 35 -343 8 -65 -15 -94 -18 -119 -11 -19 6 -74 10 -122 10 -134 0
-177 -27 -202 -127 l-11 -45 -31 36 c-90 101 -202 148 -374 154 -186 7 -308
-35 -411 -140 -32 -32 -60 -58 -63 -58 -3 0 -5 16 -5 36 0 19 -5 45 -11 56 -9
16 -7 29 8 61 22 50 24 173 4 230 -18 52 -58 96 -106 118 -54 25 -211 26 -261
3 -46 -22 -100 -85 -113 -131 -18 -62 -13 -172 9 -220 13 -30 16 -45 8 -50 -7
-3 -14 -1 -16 5 -20 60 -360 115 -515 82 -75 -15 -183 -70 -226 -114 l-35 -36
-13 38 c-11 32 -10 43 5 82 11 29 17 72 17 121 -1 95 -30 159 -94 204 -40 28
-49 30 -149 32 -59 1 -114 0 -122 -4z m183 -144 c33 -18 37 -28 37 -95 0 -85
-12 -97 -97 -102 -57 -3 -72 -1 -93 16 -22 18 -25 28 -25 87 0 58 3 69 24 86
27 22 118 26 154 8z m1275 -9 c31 -29 32 -140 2 -170 -25 -25 -133 -29 -167
-5 -43 30 -39 159 5 185 9 5 44 10 78 10 47 0 65 -4 82 -20z m-2357 -160 c21
-63 88 -270 149 -459 62 -189 115 -339 120 -335 4 5 73 212 153 459 l145 450
109 3 110 3 -113 -333 c-62 -183 -146 -431 -186 -551 l-73 -217 -150 2 -150 3
-182 535 c-100 294 -182 541 -182 548 -1 10 24 12 106 10 l106 -3 38 -115z
m1864 -162 l50 -14 3 -68 3 -69 -48 6 c-272 35 -374 11 -359 -81 3 -20 14 -44
25 -53 11 -9 73 -26 138 -38 161 -30 206 -46 242 -86 53 -61 67 -232 25 -321
-54 -114 -312 -151 -561 -79 l-53 16 0 65 c0 58 2 65 18 60 35 -11 188 -26
257 -26 87 1 146 14 162 36 18 24 17 108 -1 123 -8 7 -72 23 -143 36 -161 31
-187 40 -228 77 -43 37 -59 85 -59 179 -1 130 58 208 185 244 65 18 267 14
344 -7z m1279 -7 c98 -39 169 -129 195 -249 6 -29 11 -98 11 -152 0 -164 -32
-262 -109 -339 -63 -63 -134 -85 -271 -86 -130 0 -176 11 -247 58 -51 34 -104
111 -126 182 -20 65 -16 318 6 385 36 110 113 184 225 216 74 21 243 13 316
-15z m968 19 c51 -15 97 -56 122 -110 20 -42 21 -64 24 -382 l3 -338 -95 0
-96 0 0 299 c0 174 -4 311 -10 326 -21 55 -136 69 -275 34 l-45 -11 0 -324 0
-324 -95 0 -95 0 0 405 0 405 70 0 c66 0 70 -1 76 -25 7 -30 10 -30 60 -8 129
55 270 76 356 53z m-3002 -425 l0 -405 -95 0 -95 0 0 405 0 405 95 0 95 0 0
-405z m1260 0 l0 -405 -95 0 -95 0 0 405 0 405 95 0 95 0 0 -405z m-340 124
c0 -18 -2 -19 -15 -9 -15 12 -12 30 6 30 5 0 9 -10 9 -21z m-752 -227 c2 -7
-3 -12 -12 -12 -9 0 -16 7 -16 16 0 17 22 14 28 -4z"/>
<path d="M7635 836 c-47 -18 -78 -53 -95 -109 -16 -54 -15 -262 1 -316 26 -86
101 -129 202 -117 65 7 106 32 131 81 19 36 21 57 21 195 0 175 -12 218 -74
253 -42 25 -135 31 -186 13z m120 -205 c4 -33 4 -89 0 -125 l-7 -66 -33 0
c-40 0 -45 13 -45 132 0 109 4 118 45 118 33 0 33 0 40 -59z"/>
<path d="M11250 1418 c-17 -38 -20 -68 -20 -268 -1 -179 -4 -221 -13 -205 -7
11 -39 47 -72 81 -50 50 -73 65 -130 85 -61 21 -88 24 -220 24 -233 0 -383
-40 -432 -114 -20 -30 -23 -47 -23 -138 0 -106 6 -130 43 -170 l20 -22 -33
-37 c-32 -37 -61 -94 -74 -146 l-6 -28 -145 0 -144 0 -3 408 c-3 463 -2 454
-87 499 -39 20 -58 23 -155 23 -96 0 -118 -3 -156 -22 -26 -14 -53 -37 -65
-58 -19 -34 -20 -51 -20 -620 0 -650 -3 -622 67 -672 l33 -23 365 0 c358 0
366 0 400 22 l35 22 63 -30 63 -30 157 5 c86 4 212 6 279 5 157 -1 196 6 239
43 l35 31 28 -27 c15 -14 43 -31 62 -36 40 -12 215 -12 244 -1 11 4 39 2 64
-6 27 -8 95 -13 176 -13 127 0 134 1 192 30 109 54 179 150 220 300 25 93 25
396 -1 489 -39 144 -111 237 -221 288 -53 24 -74 28 -182 31 l-123 4 0 127 c0
108 -3 131 -20 159 l-20 32 -200 0 -201 0 -19 -42z m320 -264 c0 -192 1 -206
18 -199 9 4 53 16 96 27 94 24 232 22 281 -4 98 -52 140 -146 151 -338 11
-173 -16 -321 -73 -403 -77 -112 -261 -129 -435 -41 -26 13 -49 24 -52 24 -3
0 -6 -12 -8 -28 -3 -27 -4 -27 -85 -30 l-83 -3 0 601 0 600 95 0 95 0 0 -206z
m-1720 -359 l0 -465 230 0 230 0 0 -85 0 -85 -325 0 -325 0 0 550 0 550 95 0
95 0 0 -465z m1108 180 c62 -19 105 -54 135 -109 21 -40 22 -53 25 -373 l3
-333 -80 0 c-75 0 -80 1 -83 23 -4 27 -15 26 -98 -9 -122 -51 -289 -44 -363
17 -95 79 -88 327 12 398 73 52 205 66 346 36 38 -8 73 -15 77 -15 12 0 8 101
-5 140 -24 69 -122 88 -372 70 l-70 -5 -3 62 c-3 53 0 63 17 72 69 37 365 54
459 26z"/>
<path d="M11675 833 c-16 -2 -47 -9 -67 -14 l-38 -10 0 -228 0 -229 48 -16
c77 -27 180 -31 222 -9 63 32 75 74 75 253 0 218 -18 249 -150 255 -33 2 -73
1 -90 -2z m95 -268 l0 -115 -30 0 -30 0 0 115 0 115 30 0 30 0 0 -115z"/>
<path d="M10684 494 c-40 -9 -59 -42 -59 -100 0 -42 5 -58 23 -76 20 -20 32
-23 100 -22 47 1 98 9 132 20 l55 19 3 71 c3 67 1 72 -20 78 -31 8 -208 16
-234 10z"/>
<path d="M2485 1405 c-66 -16 -120 -41 -172 -76 -23 -16 -45 -29 -50 -29 -4 1
-17 15 -28 32 -43 68 -60 73 -228 73 -200 0 -200 0 -291 -170 -37 -69 -71
-125 -75 -125 -4 0 -36 54 -71 121 -35 66 -74 129 -88 140 -42 33 -98 41 -232
35 -152 -7 -137 -7 -290 0 -117 5 -128 4 -169 -18 -75 -39 -85 -61 -91 -201
l-5 -122 -21 45 c-11 25 -40 88 -63 142 -23 53 -51 104 -61 113 -39 35 -90 44
-260 44 -185 1 -228 -10 -268 -67 -22 -30 -22 -32 -22 -636 l0 -605 31 -35
c39 -45 79 -56 209 -56 123 0 177 19 210 72 17 28 20 50 20 156 0 68 4 121 9
118 4 -3 34 -65 66 -138 90 -208 90 -208 338 -208 162 0 177 2 217 23 81 43
80 37 80 490 0 231 4 396 9 393 5 -3 53 -86 107 -183 l99 -178 5 -222 c5 -204
7 -224 26 -249 46 -62 65 -69 202 -72 118 -3 130 -2 171 20 76 41 81 60 81
301 l0 208 81 145 c45 79 85 146 89 149 5 3 6 -27 3 -67 -7 -92 11 -263 38
-359 58 -208 199 -357 379 -398 71 -16 319 -13 408 5 135 27 180 56 205 129
l13 38 22 -31 c32 -44 134 -109 209 -132 55 -17 93 -20 242 -20 159 0 183 3
242 24 152 53 247 160 284 318 12 51 15 151 15 512 0 426 -1 450 -19 480 -36
57 -72 70 -206 74 -109 3 -124 1 -165 -20 -26 -13 -53 -37 -65 -58 -19 -33
-20 -55 -23 -451 l-3 -417 -34 -4 c-19 -2 -51 -2 -70 0 l-34 4 -3 423 c-3 480
1 457 -88 503 -37 18 -60 22 -145 22 -116 0 -158 -10 -195 -45 l-26 -25 -41
21 c-104 51 -385 76 -508 44z m382 -148 c28 -8 56 -18 62 -21 6 -4 11 -36 11
-72 l0 -64 -163 0 c-187 0 -234 -11 -290 -65 -58 -56 -79 -128 -84 -285 -9
-239 40 -363 162 -416 31 -14 78 -19 213 -22 l172 -4 0 -63 0 -62 -37 -11
c-114 -33 -319 -42 -411 -18 -196 53 -288 210 -299 517 -4 114 -2 163 11 229
40 195 130 310 284 362 48 15 78 18 187 14 72 -3 153 -11 182 -19z m-2217
-454 l195 -452 3 454 2 455 95 0 95 0 0 -550 0 -551 -155 3 -156 3 -197 450
-197 449 -3 -452 -2 -452 -95 0 -95 0 0 550 0 551 157 -3 157 -3 196 -452z
m863 227 c65 -124 121 -228 125 -232 5 -5 64 98 132 227 l124 235 109 0 c95 0
108 -2 103 -16 -3 -9 -87 -159 -186 -335 l-180 -320 0 -214 0 -215 -95 0 -95
0 0 210 0 211 -178 317 c-99 174 -184 327 -191 340 l-12 23 113 -3 112 -3 119
-225z m1829 -177 c3 -391 4 -410 24 -454 31 -66 72 -84 194 -84 120 0 164 19
198 85 22 44 22 49 22 452 l0 408 95 0 96 0 -3 -442 c-3 -441 -3 -443 -27
-495 -52 -117 -155 -172 -338 -181 -246 -11 -375 54 -429 218 -16 49 -18 105
-22 478 l-4 422 95 0 95 0 4 -407z m-332 -143 l0 -245 -194 0 c-192 0 -195 0
-220 24 -37 35 -50 89 -50 221 -1 119 14 199 41 222 21 17 85 23 265 23 l158
0 0 -245z"/>
</g>
</svg>
